# xmcd
#
# Track frame offsets:
#	150
#	17410
#	31830
#	51935
#	67427
#	86700
#	107665
#	123857
#	137037
#	153190
#	169540
#	183352
#	200782
#	214442
#	230857
#
# Disc length: 3306 seconds
#
# Revision: 1
# Processed by: cddbd v1.5.2PL0 Copyright (c) Steve Scherf et al.
# Submitted via: audiograbber 1.83.01
#
DISCID=d70ce80f
DTITLE=Country Hits Vol. 68 - Sound Choice 8306
DYEAR=1900
DGENRE=
TTITLE0=Tanya Tucker - Let The Good Times Roll
TTITLE1=George Strait - A Fire I Can't Put Out
TTITLE2=Ronnie Milsap - I'm Playing For You
TTITLE3=Andy Childs - Broken
TTITLE4=Wynonna Judd and Michael English - Healing
TTITLE5=Anne Murray - I Can See Arkansas
TTITLE6=Restless Heart - In This Little Town
TTITLE7=George Jones - Wrong's What I Do Best
TTITLE8=Reba McEntire - Will He Ever Go Away
TTITLE9=Amie Comeaux - Moving Out
TTITLE10=Alison Krauss - New Fool
TTITLE11=Trisha Yearwood - O Mexico
TTITLE12=Travis Tritt - Bible Belt
TTITLE13=Chris Ledoux - Riding For A Fall
TTITLE14=Alabama - On This Side Of The Moon
EXTD=
EXTT0=
EXTT1=
EXTT2=
EXTT3=
EXTT4=
EXTT5=
EXTT6=
EXTT7=
EXTT8=
EXTT9=
EXTT10=
EXTT11=
EXTT12=
EXTT13=
EXTT14=
PLAYORDER=
